<svg height="511pt" viewBox="1 -30 511.9996 511" width="511pt" xmlns="http://www.w3.org/2000/svg"><path d="m388.414062 256.507812c0 107.257813-86.949218 194.207032-194.207031 194.207032-107.257812 0-194.207031-86.949219-194.207031-194.207032 0-107.257812 86.949219-194.207031 194.207031-194.207031 107.257813 0 194.207031 86.949219 194.207031 194.207031zm0 0" fill="#fbb540"/><path d="m175.5625 63.394531c-43.371094 97.898438.832031 212.414063 98.726562 255.785157 30.585938 13.554687 64.164063 18.957031 97.457032 15.691406 43.378906-97.886719-.8125-212.402344-98.699219-255.78125-30.59375-13.554688-64.179687-18.964844-97.484375-15.695313zm0 0" fill="#da922a"/><path d="m441.378906.5-12.074218 36.191406c-3.515626 10.558594-11.796876 18.839844-22.351563 22.351563l-36.195313 12.078125 35.3125 11.765625c11.066407 3.691406 19.597657 12.613281 22.792969 23.835937l12.515625 43.847656 12.535156-43.882812c3.199219-11.207031 11.722657-20.109375 22.773438-23.800781l35.3125-11.765625-36.195312-12.078125c-10.554688-3.511719-18.835938-11.792969-22.351563-22.351563zm0 0" fill="#fbb540"/><g fill="#ea9d2d"><path d="m467.863281 221.1875h17.65625v17.65625h-17.65625zm0 0"/><path d="m485.515625 141.742188h17.65625v17.652343h-17.65625zm0 0"/><path d="m432.550781 177.050781h17.65625v17.65625h-17.65625zm0 0"/></g></svg>