<svg height="511pt" viewBox="0 -10 511.99982 511" width="511pt" xmlns="http://www.w3.org/2000/svg"><path d="m148.621094 164.835938c-38.867188-45.539063-48.882813-109.042969-25.917969-164.335938-85.546875 20.136719-138.570313 105.8125-118.433594 191.363281 20.140625 85.546875 105.816407 138.570313 191.363281 118.433594 49.808594-11.726563 90.941407-46.6875 110.535157-93.957031-58.015625 13.695312-118.824219-6.183594-157.546875-51.503906zm0 0" fill="#fbb540"/><path d="m66.433594 364c16.972656-30.203125 52.902344-44.222656 85.84375-33.503906 15.546875-50.347656 68.960937-78.5625 119.308594-63.019532 7.027343 2.171876 13.78125 5.144532 20.125 8.867188 48.070312-51.335938 128.652343-53.984375 179.988281-5.914062 51.332031 48.070312 53.980469 128.652343 5.910156 179.988281-24.085937 25.722656-57.757813 40.316406-93 40.300781-1.539063 0-3.03125-.171875-4.550781-.226562-1.511719.109374-3.011719.226562-4.550782.226562h-300.285156c-35.175781-.242188-63.5-28.953125-63.257812-64.132812.214844-31.445313 23.351562-58.03125 54.46875-62.585938zm0 0" fill="#8aced8"/><path d="m316.359375 8.445312-8.550781 25.667969c-2.492188 7.46875-8.355469 13.332031-15.824219 15.824219l-25.671875 8.554688 25.015625 8.332031c7.835937 2.613281 13.878906 8.929687 16.144531 16.871093l8.890625 31.105469 8.886719-31.105469c2.265625-7.941406 8.308594-14.257812 16.144531-16.871093l25.015625-8.332031-25.671875-8.554688c-7.46875-2.492188-13.332031-8.355469-15.824219-15.824219zm0 0" fill="#fece2f"/><g fill="#f3c52d"><path d="m366.410156 187.59375h18.199219v18.199219h-18.199219zm0 0"/><path d="m393.707031 105.699219h18.199219v18.199219h-18.199219zm0 0"/><path d="m330.011719 142.097656h18.199219v18.199219h-18.199219zm0 0"/></g><path d="m148.136719 363.324219h-.433594c-5.023437-.234375-8.898437-4.496094-8.664063-9.515625 2.746094-57.730469 51.769532-102.300782 109.5-99.554688 30.28125 1.441406 58.449219 15.941406 77.210938 39.75 3.113281 3.949219 2.433594 9.671875-1.511719 12.78125-3.949219 3.109375-9.671875 2.433594-12.78125-1.515625-29.554687-37.492187-83.910156-43.929687-121.40625-14.375-19.660156 15.5-31.636719 38.761719-32.832031 63.769531-.230469 4.847657-4.226562 8.65625-9.082031 8.660157zm0 0" fill="#6fbbc6"/></svg>