<svg height="511pt" viewBox="-4 0 511 511.99989" width="511pt" xmlns="http://www.w3.org/2000/svg"><g fill="#a8d6da"><path d="m434.292969 379.570312c-4.878907 0-8.828125-3.957031-8.824219-8.832031 0-1.367187.320312-2.71875.929688-3.941406l8.828124-17.65625c2.179688-4.367187 7.484376-6.136719 11.847657-3.957031 4.367187 2.179687 6.136719 7.484375 3.957031 11.847656l-8.828125 17.65625c-1.5 3-4.5625 4.890625-7.910156 4.882812zm0 0"/><path d="m213.578125 379.570312c-4.875 0-8.828125-3.957031-8.824219-8.832031 0-1.367187.320313-2.71875.929688-3.941406l8.828125-17.65625c2.179687-4.367187 7.484375-6.136719 11.851562-3.957031 4.363281 2.179687 6.132813 7.484375 3.953125 11.847656l-8.828125 17.65625c-1.496093 3-4.5625 4.890625-7.910156 4.882812zm0 0"/><path d="m407.804688 432.542969c-4.875-.003907-8.824219-3.957031-8.824219-8.832031.003906-1.371094.320312-2.71875.933593-3.941407l8.828126-17.660156c2.179687-4.363281 7.484374-6.132813 11.847656-3.953125 4.363281 2.179688 6.136718 7.484375 3.957031 11.847656l-8.832031 17.65625c-1.496094 2.996094-4.558594 4.886719-7.910156 4.882813zm0 0"/><path d="m187.09375 432.542969c-4.878906-.003907-8.828125-3.957031-8.824219-8.832031 0-1.371094.316407-2.71875.929688-3.941407l8.828125-17.660156c2.179687-4.363281 7.484375-6.132813 11.847656-3.953125s6.136719 7.484375 3.957031 11.847656l-8.828125 17.65625c-1.5 2.996094-4.5625 4.886719-7.910156 4.882813zm0 0"/><path d="m381.320312 485.515625c-4.875-.003906-8.828124-3.960937-8.824218-8.835937 0-1.367188.320312-2.714844.929687-3.941407l8.832031-17.65625c2.179688-4.363281 7.480469-6.136719 11.847657-3.957031 4.363281 2.179688 6.132812 7.484375 3.953125 11.847656l-8.828125 17.660156c-1.496094 2.996094-4.5625 4.886719-7.910157 4.882813zm0 0"/><path d="m487.261719 379.570312c-4.875 0-8.824219-3.957031-8.824219-8.832031.003906-1.367187.320312-2.71875.933594-3.941406l8.828125-17.65625c2.179687-4.367187 7.484375-6.136719 11.847656-3.957031 4.363281 2.179687 6.136719 7.484375 3.957031 11.847656l-8.832031 17.65625c-1.496094 3-4.558594 4.890625-7.910156 4.882812zm0 0"/><path d="m460.777344 432.542969c-4.875-.003907-8.828125-3.957031-8.824219-8.832031 0-1.371094.320313-2.71875.933594-3.941407l8.828125-17.660156c2.179687-4.363281 7.480468-6.132813 11.847656-3.953125 4.363281 2.179688 6.132812 7.484375 3.953125 11.847656l-8.828125 17.65625c-1.496094 2.996094-4.558594 4.886719-7.910156 4.882813zm0 0"/><path d="m434.292969 485.515625c-4.878907-.003906-8.828125-3.960937-8.824219-8.835937 0-1.367188.320312-2.714844.929688-3.941407l8.828124-17.65625c2.179688-4.363281 7.484376-6.136719 11.847657-3.957031 4.367187 2.179688 6.136719 7.484375 3.957031 11.847656l-8.828125 17.660156c-1.5 2.996094-4.5625 4.886719-7.910156 4.882813zm0 0"/><path d="m160.605469 485.515625c-4.875-.003906-8.824219-3.960937-8.824219-8.835937 0-1.367188.320312-2.714844.933594-3.941407l8.828125-17.65625c2.179687-4.363281 7.484375-6.136719 11.847656-3.957031s6.132813 7.484375 3.953125 11.847656l-8.828125 17.660156c-1.496094 2.996094-4.558594 4.886719-7.910156 4.882813zm0 0"/><path d="m160.605469 379.570312c-4.875 0-8.824219-3.957031-8.824219-8.832031 0-1.367187.320312-2.71875.933594-3.941406l8.828125-17.65625c2.179687-4.367187 7.484375-6.136719 11.847656-3.957031 4.363281 2.179687 6.132813 7.484375 3.953125 11.847656l-8.828125 17.65625c-1.496094 3-4.558594 4.890625-7.910156 4.882812zm0 0"/><path d="m134.121094 432.542969c-4.875-.003907-8.828125-3.957031-8.824219-8.832031 0-1.371094.320313-2.71875.929687-3.941407l8.828126-17.660156c2.179687-4.363281 7.484374-6.132813 11.851562-3.953125 4.363281 2.179688 6.132812 7.484375 3.953125 11.847656l-8.828125 17.65625c-1.496094 2.996094-4.5625 4.886719-7.910156 4.882813zm0 0"/><path d="m107.636719 485.515625c-4.878907-.003906-8.828125-3.960937-8.824219-8.835937 0-1.367188.316406-2.714844.929688-3.941407l8.828124-17.65625c2.179688-4.363281 7.484376-6.136719 11.847657-3.957031s6.136719 7.484375 3.957031 11.847656l-8.828125 17.660156c-1.5 2.996094-4.5625 4.886719-7.910156 4.882813zm0 0"/></g><path d="m204.546875 238.445312c-65.824219.066407-119.238281-53.242187-119.300781-119.066406-.054688-53.773437 35.90625-100.925781 87.78125-115.09375-74.109375-18.804687-149.433594 26.023438-168.242188 100.136719-18.804687 74.109375 26.023438 149.433594 100.132813 168.238281 48.898437 12.410156 100.675781-2.761718 135.144531-39.597656-11.5 3.578125-23.472656 5.394531-35.515625 5.382812zm0 0" fill="#f3c52d"/><path d="m275.378906 317.769531h79.457032l-44.144532 70.628907h61.800782l-97.113282 123.601562 17.65625-88.285156h-52.972656zm0 0" fill="#fbb540"/><path d="m160.605469 52.914062h17.65625v17.65625h-17.65625zm0 0" fill="#f3af3e"/><path d="m187.09375 88.230469h17.65625v17.65625h-17.65625zm0 0" fill="#f7ba61"/><path d="m142.949219 114.714844h17.65625v17.65625h-17.65625zm0 0" fill="#f3af3e"/><path d="m181.503906 194.453125c12-39.632813 53.855469-62.035156 93.488282-50.039063 6.863281 2.078126 13.390624 5.128907 19.382812 9.058594 8.03125-43.144531 49.511719-71.609375 92.65625-63.578125 37.507812 6.980469 64.761719 39.636719 64.917969 77.792969v27.191406c33.742187 5.136719 56.929687 36.65625 51.789062 70.398438-4.570312 30.011718-30.261719 52.261718-60.617187 52.496094h-256.027344c-34.132812-.171876-61.664062-27.976563-61.496094-62.105469.15625-31.730469 24.320313-58.1875 55.90625-61.214844zm0 0" fill="#69b0bb"/></svg>