<svg height="511pt" viewBox="-36 0 511 511.99993" width="511pt" xmlns="http://www.w3.org/2000/svg"><path d="m348.550781 317.304688h20.492188v81.976562h-20.492188zm0 0" fill="#e4e4e2"/><path d="m317.808594 348.046875h81.976562v20.492187h-81.976562zm0 0" fill="#e4e4e2"/><path d="m65.386719 122.933594c13.929687-46.003906 62.511719-72.003906 108.515625-58.078125 7.960937 2.410156 15.539062 5.949219 22.496094 10.511719 9.320312-50.074219 57.46875-83.113282 107.542968-73.792969 43.535156 8.101562 75.167969 46.007812 75.347656 90.292969v31.558593c39.164063 5.964844 66.078126 42.550781 60.113282 81.714844-5.304688 34.832031-35.125 60.65625-70.359375 60.925781h-297.167969c-39.613281-.195312-71.570312-32.46875-71.375-72.082031.183594-36.832031 28.226562-67.535156 64.886719-71.050781zm0 0" fill="#b8eaee"/><path d="m322.566406 336.550781 14.492188-14.492187 57.957031 57.960937-14.492187 14.492188zm0 0" fill="#dbdbdb"/><path d="m322.566406 380.027344 57.957032-57.960938 14.492187 14.492188-57.960937 57.960937zm0 0" fill="#dbdbdb"/><path d="m92.367188 337.796875h20.496093v81.976563h-20.496093zm0 0" fill="#e4e4e2"/><path d="m61.628906 368.539062h81.976563v20.496094h-81.976563zm0 0" fill="#e4e4e2"/><path d="m66.382812 357.042969 14.492188-14.492188 57.957031 57.960938-14.492187 14.492187zm0 0" fill="#dbdbdb"/><path d="m66.382812 400.515625 57.957032-57.957031 14.492187 14.492187-57.957031 57.957031zm0 0" fill="#dbdbdb"/><path d="m189.347656 449.273438 14.492188-14.492188 57.960937 57.960938-14.492187 14.492187zm0 0" fill="#e4e4e2"/><path d="m189.347656 492.75 57.960938-57.960938 14.492187 14.492188-57.960937 57.960938zm0 0" fill="#e4e4e2"/><g fill="#dbdbdb"><path d="m215.335938 430.023438h20.492187v81.976562h-20.492187zm0 0"/><path d="m184.59375 460.765625h81.976562v20.492187h-81.976562zm0 0"/></g></svg>